# xmcd
# 
# Track frame offsets:
#     150
#     13741
#     36032
#     51660
#     73084
#     87417
#     107450
#     121378
#     137150
#     157894
#     174376
#     191787
#     212721
# 
# Disc length: 3117
# 
# Revision: 1
# Processed by: cddbd v1.5.2PL0 Copyright (c) Steve Scherf et al.
# Submitted via: fre:ac v1.1beta1pre4
# 
DISCID=b80c2b0d
DTITLE=Reckless Kelly - Sunset Motel
DYEAR=2016
DGENRE=Americana
TTITLE0=How Can You Love Him (You Don't Even Like Him)
TTITLE1=Radio
TTITLE2=Buckaroo
TTITLE3=Sunset Motel
TTITLE4=The Champ
TTITLE5=One More One Last Time
TTITLE6=Forever Today
TTITLE7=Volcano
TTITLE8=Give It Up
TTITLE9=Who's Gonna Be Your Baby Now
TTITLE10=Moment in the Sun
TTITLE11=Sad Songs About You
TTITLE12=Under Lucky Stars
EXTD=
EXTT0=
EXTT1=
EXTT2=
EXTT3=
EXTT4=
EXTT5=
EXTT6=
EXTT7=
EXTT8=
EXTT9=
EXTT10=
EXTT11=
EXTT12=
PLAYORDER=
